<?xml version="1.0" encoding="UTF-8"?>
<!DOCTYPE svg PUBLIC "-//W3C//DTD SVG 1.1//EN" "http://www.w3.org/Graphics/SVG/1.1/DTD/svg11.dtd">
<!-- Creator: CorelDRAW -->
<svg xmlns="http://www.w3.org/2000/svg" xml:space="preserve" width="191.322mm" height="267.12mm" version="1.1" style="shape-rendering:geometricPrecision; text-rendering:geometricPrecision; image-rendering:optimizeQuality; fill-rule:evenodd; clip-rule:evenodd"
viewBox="0 0 6499.97 9075.15"
 xmlns:xlink="http://www.w3.org/1999/xlink"
 xmlns:xodm="http://www.corel.com/coreldraw/odm/2003">
 <g id="Katman_x0020_1">
    <path fill="#2B2A29" d="M2958.26 3296.19l0 3.95c0,68.13 -37.51,126.4 -99.52,154.62 -51.74,23.54 -108.05,20.47 -155.12,-7.19 -38.18,30.44 -88.53,43.23 -139.6,32.75l-22.27 -4.57c-303.33,-62.18 -627.89,-344.97 -800.89,-595.12 -217.96,-315.14 -337.61,-736.1 -255.34,-1116.11 20.3,-93.74 54.13,-157.74 137.37,-211.33 27.38,-17.63 55.11,-26.16 87.67,-26.98 76.23,-1.92 151.43,4.67 223.01,33.02 530.85,210.25 995.76,557.7 1343.04,1011.4 45.84,59.89 92.69,118.93 136.52,180.33 37.79,52.95 71.87,103.83 77.23,163.7 40.95,-19.12 83.14,-36.1 126.54,-50.77 -65.75,-13.73 -116,-63.3 -130.46,-130.32 -6.77,-31.36 -4.82,-62.47 4.73,-90.77 -42.2,-13.1 -79.24,-42.53 -100.88,-84.81 -35.58,-69.5 -55.94,-144.81 -90.89,-212.59 -26.05,-50.51 -25.4,-107.52 -0.6,-155.23 -30.27,-15.23 -56.29,-39.6 -73.38,-71.67 -41.64,-78.11 -85.2,-155.17 -126.27,-233.59 -20.18,-38.53 -24.75,-80.96 -14.8,-120.21 -28.04,-9.25 -53.92,-26.04 -74.8,-49.85 -33.46,-38.14 -55.98,-78.98 -85.46,-118.91 -22.68,-30.72 -49.04,-59.38 -73.07,-89.14 -26.37,-32.66 -39.33,-71.25 -38.21,-110.44 -26.93,-5.88 -52.79,-18.41 -75.05,-37.68 -35.41,-30.66 -71.1,-68.88 -103.81,-102.62 -32.2,-33.22 -78.38,-78.04 -103.96,-115.79 -13.71,-20.23 -22.46,-41.1 -26.55,-63.54 -23.93,-2.6 -47.68,-10.37 -69.68,-23.56 -58.91,-35.31 -109.39,-79.4 -164.95,-118.9 -44.92,-31.93 -94.83,-55.48 -139.45,-89.61 -16.31,-12.48 -29.85,-27.15 -40.37,-43.35 -25.06,-0.74 -50.33,-7.08 -74.03,-19.44 -71.27,-37.19 -134.49,-67.32 -210.09,-95.19 -17.89,-6.59 -34.05,-15.85 -48.14,-27.18 -27.03,4.61 -55.53,2.59 -83.38,-6.76 -399.28,-134.11 -796.9,-113.93 -1177.37,69 -88.06,42.34 -165.46,105.93 -256.59,146.48 -72.9,32.44 -156.02,11.11 -204.3,-52.41 -48.28,-63.52 -46.57,-149.32 4.2,-210.87 424.26,-514.4 1201.75,-679.55 1836.09,-575.21 655.04,107.74 1251.02,440 1722.96,901.89 116.35,113.87 367.59,388.4 440.78,541.39 149.18,158.24 208.88,342.34 316.64,523.27 12.93,21.71 20.65,45.04 23.33,68.58 30.69,43.73 43.22,95.34 63.33,144.41 27.55,67.24 55.47,134.3 80.47,202.52 -15.93,-85.8 -15.83,-172.6 -31.84,-257.45 -7.18,-38.02 -1.57,-75.43 14.5,-107.61 -21.07,-20.51 -37.05,-46.76 -45.33,-77.1 -22.65,-83.03 -45.99,-161.43 -76.97,-241.86 -9.58,-24.87 -13.03,-50.62 -10.97,-75.54 -22.4,-17.21 -39.67,-39.88 -51.53,-67.74 -27.94,-65.61 -44.45,-114.29 -84.89,-174 -21.6,-31.89 -31.13,-68.48 -29.25,-104.27 -14.26,-12.38 -26.81,-27.29 -38.08,-44.82 -2.87,-4.07 -5.26,-7.78 -7.82,-12.19 -19.32,-33.1 -43.9,-64.67 -64.83,-97.06 -9.26,-14.33 -16.2,-29.44 -20.83,-44.92 -3.93,-3.49 -7.74,-7.19 -11.41,-11.1 -43.42,-46.1 -78.58,-99.3 -121.7,-144.46 -13.82,-14.48 -24.65,-30.71 -32.46,-47.96 -11.02,-6.72 -21.47,-14.8 -31.1,-24.22 -52.42,-51.24 -114.2,-86.75 -157.1,-149.99 -0.65,-0.95 -1.29,-1.91 -1.91,-2.87 -13.35,-6.31 -26.13,-14.49 -38.06,-24.5 -127.6,-107.01 -294.53,-195.09 -449.79,-254.34 -25.03,-9.55 -59.24,-15.9 -85.61,-22.21 -47.11,-11.26 -96.82,-23.67 -140.29,-45.31 -68.61,-34.15 -105.05,-106.69 -91.49,-182.12 13.56,-75.44 72.98,-130.74 149.19,-138.86 99.14,-10.57 249.91,7.55 347.8,30.36 485.47,113.13 911.35,381.37 1239.95,754.14 74.68,84.72 140.26,153.81 200.4,251.58 7.88,12.81 13.95,26.17 18.22,39.83 95.08,97.72 213.27,296.69 246.35,397.97 2.45,7.51 4.38,15.05 5.8,22.6 68.83,77.34 101.87,179.52 138.37,274.65 29.21,76.13 56.37,138.58 72.71,220.17 3.97,19.84 4.48,39.53 1.82,58.43 41.24,69.93 67.3,155.16 85.59,224.78 17.49,66.54 36.87,153.36 44.33,230.25 16.16,-9.54 32.61,-18.84 49.41,-28.56 65.81,-38.03 132.21,-75.07 199.7,-110.05 133.13,-69.01 247.83,-130.91 351,-242.32 30.38,-32.81 73.33,-55.63 116.91,-65.18 22.46,-4.92 42.49,-5.38 65.15,-1.48 68.28,11.74 127.38,46.04 157.62,111.93 62.65,136.52 34.57,369.37 13.02,517.33 -19.58,134.4 -120.96,397.95 -208.33,513.11 -39.76,64.81 -108.21,140.24 -161.25,191.08 -60.24,57.73 -151.45,63.55 -218.54,13.93 -67.09,-49.61 -88.24,-138.52 -50.69,-213.03 19.33,-38.36 42.45,-73.86 66.02,-109.09 -43.44,37.39 -88.15,72.26 -134.05,102.74 -27.82,18.47 -56.25,27.45 -89.64,28.3l-5.58 0.14c78.06,124.14 139.03,271.15 165.06,405.8 17.45,90.27 11.07,235.63 -7.03,326.34 -6.7,33.59 -22.04,62.76 -44.27,85.54 151.81,294.18 309.37,585.39 471.6,873.95 93.12,165.62 203.28,341.35 263.43,521.68 26.14,78.37 10.26,167.13 -18.14,247.08 60.08,85.5 63.69,235.99 41.3,333.06 -29.69,128.74 -94.66,224.05 -205.74,296.15 -10.65,6.91 -20.37,11.84 -32.24,16.34 -19.27,7.31 -31.41,10.08 -51.68,12.86 -16.04,2.2 -31.88,2.11 -47.18,-0.03 -2.48,20.18 -8.74,40.23 -18.84,59.48 -74.08,141.28 -131.5,203.77 -286.71,257.9 -94.81,33.07 -199.45,24.96 -292.92,-8.64 -28.19,-7.93 -56.88,-19.91 -85.45,-34.99 4.76,10.4 8.56,21.43 11.31,33.02 10.11,42.66 11.28,86.18 12.65,129.75 0.57,18.12 0.55,47.17 4.95,64.56 83.46,329.64 159.17,636.38 -56.54,938.29 -8.55,11.97 -17.11,21.27 -28.33,30.79l-8.71 7.39c-40.04,33.97 -88.65,47.05 -139.64,37.72 -87.02,203.75 -241.48,375.13 -454.72,457.14 -70.81,27.23 -147.96,5.9 -194.73,-53.84 -46.77,-59.74 -48.96,-139.75 -5.53,-201.96 25.59,-36.65 54.35,-70.61 80.33,-106.81 67.51,-94.06 100.91,-244.95 100.39,-371.23 -11.6,1.6 -23.55,2.04 -35.72,1.23 -75.25,-5 -136.01,-56.12 -153.8,-129.41 -19.71,-81.18 -37.79,-163 -60.9,-243.3 -28.39,-98.63 -62.69,-190.37 -76.7,-292.64 -53.45,-204.74 -14.11,-491.06 89.6,-672.33 30.36,-53.07 68.03,-106.07 113.71,-147.07 81.33,-72.99 187.73,-100.71 284.89,-55.27 -73.72,-66.78 -155.4,-126.92 -235.61,-187.05 -50.3,29.76 -107.78,50.66 -157.74,67.28 -60.63,20.16 -138.08,42.97 -205.43,53.15 49.15,38.25 73.11,99.41 61.91,162.89 -10.15,57.58 -26.24,122.69 -29.88,180.45 -11.6,184.46 -1.32,380.52 34.15,561.99 20.28,103.74 48.82,205.62 68.64,309.61 26.04,136.65 35.55,263.96 37.83,402.77 1.48,90.08 -4.52,180.24 -18.3,269.29 -25.88,167.33 -115.08,477.67 -231.79,598.22 -42.59,43.98 -101.64,61.16 -159.34,47.7 -6.64,154.33 -33.91,324.2 -86.2,425.46 -32.17,62.28 -95.12,97.13 -164.97,91.34 -69.85,-5.79 -126.2,-50.54 -147.67,-117.27 -18.08,-56.21 -29.04,-115.91 -41.06,-173.72 -73.98,-355.99 -439.34,-735.47 -700.69,-973.17 -380.98,-346.49 -651.56,-775.22 -773.35,-1249.76 1.15,8.18 2.25,16.36 3.28,24.51 6.81,54.07 17.19,97.82 15.6,154.23 -0.02,0.55 -0.03,1.02 -0.05,1.57l-0.25 6.7c-2.72,72.47 -48.07,132.58 -117,155.1 -68.94,22.52 -141.02,0.77 -186,-56.11 -68.37,-86.46 -135.33,-168.96 -197.7,-260.24l-30.7 -44.13c-251.72,-361.8 -357.46,-701.74 -275.66,-1142.33 22.64,-121.95 56.64,-241.78 103.18,-356.8 164.89,-407.55 538.82,-919.16 902.56,-1168.58 49.82,-34.16 108.94,-39.73 164.27,-15.48 55.33,24.26 91.29,71.51 99.92,131.31 8.89,61.59 -5.74,122.57 -44.98,171.59 -206.68,258.23 -312.63,577.78 -388.51,895.26 -37.03,154.94 -59.86,311.92 -72.81,469.87 53.89,-247.59 170.29,-623.73 284.98,-747.45 44.58,-48.09 108.07,-65.85 171.13,-47.88 63.06,17.97 107.65,66.53 120.19,130.9 9.11,46.75 9.26,90.41 1.47,137.26 -3.4,20.46 -8.95,41.62 -10.81,62.19 -26.65,295.22 -10.17,602.15 60.6,890.43 0.36,1.48 0.66,2.75 0.98,4.23 31,141.86 80.19,274.88 138.33,407.59 138.55,316.23 336.86,574.83 562.02,833.44 86.89,99.8 173.4,206.91 252.86,320.14 -32.09,-53.88 -65.97,-104.48 -100.42,-149.48 -134.57,-175.81 -284.25,-339.63 -406.56,-524.86 -121.63,-184.2 -212.31,-387.45 -267.93,-601.07 -23.73,-91.15 -49.87,-166.19 -56,-262.33 -4.31,-67.64 29.02,-127.87 88.61,-160.16 59.59,-32.29 128.25,-27.3 182.56,13.26 74.77,55.84 113.34,182.5 160.45,262.24 23.28,39.41 49.5,77.06 77.8,113.02 19.93,25.33 41.65,49.27 61.68,74.6 91.66,115.9 206.33,215.29 314.1,315.73 19.81,18.46 39.43,36.98 58.76,55.63 24.95,-209.33 121.76,-491.34 259.18,-620.2 0.8,-0.75 1.6,-1.49 2.41,-2.22 -452.02,-24.28 -882.07,-279.51 -1135.05,-654.68 -97.64,-144.8 -161.41,-252.16 -215.12,-420.79 -62.56,-196.43 -99.26,-348.52 -102.38,-556.81 -3.6,-239.26 14.63,-459.1 107.27,-682.83 27.19,-65.67 45.24,-127.75 81.1,-190.68 31.77,-55.77 58.43,-113.39 96.2,-165.81 13.63,-18.92 27.66,-37.49 42.07,-55.69 -15.65,-2.45 -31.31,-5.32 -46.96,-8.59zm1611.18 -787.14c-9.06,-9.42 -17.08,-19.94 -23.82,-31.39 2.84,9.08 5.53,18.2 8.06,27.37 5.27,1.08 10.53,2.42 15.76,4.01zm757.66 4059.27c-10.84,-9.32 -21.48,-18.89 -31.88,-28.64 -1.12,9.79 -3.12,19.6 -6,29.34 12.33,-1.59 25.01,-1.85 37.88,-0.7zm-215.47 -261.96c-1.52,16.26 -5.44,31.92 -11.72,46.9 12.88,-2.08 25.91,-2.62 38.84,-1.64 -8.83,-14.25 -17.87,-29.53 -27.12,-45.26z"/>
  <path id="kafa" fill="#FEFEFE" fill-rule="nonzero" d="M6306.21 5829.85c29.32,33.25 25.81,153.98 15.59,198.31 -19.86,86.13 -58.88,143.92 -132.7,191.83 -8.53,3.23 -3.74,1.91 -14.5,3.39 -3.2,-12.27 7.54,-50 11.17,-63.69 20.1,-75.72 23.65,-148.04 28.88,-225.94 30.07,-35.03 60.59,-69.66 91.55,-103.9zm-1678.35 1102.96c-45.98,-160.55 -13.48,-408.65 70.06,-554.67 33.91,-59.26 114.62,-179.03 192.27,-125.22 17.08,11.83 34.98,23.71 52.13,35.81 -157.68,196.98 -150.53,442.26 -77.12,672.05 18.3,26.46 16.98,53.39 60.19,106.48 -22.57,-235.56 -3.01,-406.95 200.7,-545.7 -114.51,291.72 -62.41,478.47 19.37,767.55 96.14,339.82 -50.85,782.57 -398.88,916.41 24.74,-35.43 53.4,-69.25 79.05,-105 106.62,-148.54 148.79,-385.07 126.56,-563.47 -17.68,-141.94 -93.91,-392.82 -182.87,-508.26 0.26,43.69 10.42,84.94 16.04,128.16 13.72,105.62 17.19,204.78 -21.8,305.02 -20.2,-83.2 -39.07,-167.99 -62.73,-250.2 -26,-90.31 -61.86,-185.18 -72.95,-278.95zm684.72 -195.21c12.52,52.83 3.16,137.39 18.22,196.83 68.23,269.54 149.85,546.02 -30.08,797.84l-8.71 7.39 -2.99 -6.65c22.67,-121.9 24.48,-246.77 5.36,-369.27 -9.76,-59.93 -31.1,-129.26 -44.15,-190.48 -31.15,-146.02 -12.16,-305.14 62.36,-435.67zm-2217.47 -768.22c23.62,17.64 91.65,171.19 115.84,212.55 27.3,45.8 57.55,89.77 90.55,131.65 19.97,25.45 41.79,49.46 61.94,74.94 195.7,247.45 474.98,415.17 640.15,689.14 29.24,48.5 58.78,104.56 95.88,144.98 -45.59,-185.7 -71.85,-287.16 -66.2,-484.28 4.69,-163.96 92.04,-467.98 211.64,-580.14 -10.22,57.99 -28.53,142.2 -32.12,199.29 -12.35,196.38 -0.81,412 36.97,605.24 20.12,102.91 48.5,203.74 68.48,308.82 25.33,132.69 32.62,237.99 34.85,373.75 1.32,80.49 -4.14,160.95 -16.32,240.53 -19.85,127.5 -100.23,417.48 -185.96,506.03 -1.93,-139.21 -1.83,-325.41 -35.09,-458.85 -55.07,-220.96 -186.38,-487.03 -324.77,-667.83 -128.01,-167.23 -283.76,-339.23 -399.69,-515.21 -111.61,-168.61 -194.48,-354.55 -245.29,-550.27 -21.28,-81.2 -45.52,-146.51 -50.86,-230.33zm-510.81 -1074.26c12.08,62.03 -6.44,92.54 -11.78,151.71 -28.3,313.58 -10.29,640.24 64.81,946.2 33.92,155.24 85.59,295.47 148.69,439.49 147.06,335.66 350.84,602.71 589.49,876.82 252.06,289.5 514.1,657.61 563.02,1047.75 17.18,137 1.04,425.84 -62.13,548.16 -14.29,-44.41 -26.44,-109.51 -36.45,-156.26 -82.94,-400.57 -463.39,-801.14 -752.72,-1064.28 -569.89,-518.3 -874.71,-1222.58 -769.85,-1994.91 22.28,-164.17 157.79,-676.95 266.92,-794.67zm-71.38 -880.5c2.12,14.69 0.44,28.79 -9.48,41.18 -223.79,279.62 -338.94,618.14 -421.11,961.92 -106.91,447.29 -101.66,902.23 -76.98,1358.34 4.15,76.69 19.41,154.2 28.97,230.3 5.55,43.91 15.61,83.1 14.34,128.19l-0.25 6.7c-74.86,-94.68 -120.43,-147.81 -191.08,-251.3l-31.12 -44.73c-223.49,-324.07 -321.65,-617.09 -248.09,-1014.31 20.75,-110.79 52.11,-219.32 93.63,-324.11 152.64,-375.12 505.84,-862.26 841.16,-1092.19zm3417.39 -687.36c28.62,-56.79 78.23,-122.2 113.64,-180.09 -17.85,61.96 -16.28,44.91 24.76,15.39 -27.72,48.96 -99.27,127.21 -138.4,164.71zm-4215.46 -1631.21c51.97,-1.31 107.15,1.74 156.18,21.14 502.21,198.92 942.02,527.31 1270.7,956.71 44.63,58.31 90.44,115.94 133.14,175.77 16.6,23.26 53.73,65.09 43.61,93.6 -27.34,21.6 -65.33,20.29 -99.05,21.06 -95.53,2.19 -203.82,-116.12 -268.12,-181.8 11.68,34.88 19.81,70.98 32.39,106.29 29.03,81.55 70.39,165.01 76.94,252.1 -245.09,-28.27 -503.27,-187.33 -660.89,-375.05 140.59,92.85 231.87,130.52 398.89,163.44 -57,-185.2 -182.81,-370.03 -286.29,-530.64 -142.16,-202.41 -366.7,-394.43 -585.68,-508.89 -34.96,-18.27 -116.26,-62.99 -149.67,-31.95 -28.85,71.42 15.77,310.21 38.63,386.73 114.38,383.06 318.28,768.98 664.45,988.8 37.64,23.9 79.85,47.74 113.16,76.3l4.89 4.26 -22.27 -4.57c-257.06,-53.64 -547.72,-311.94 -695.3,-525.33 -190.87,-275.98 -301.23,-650.04 -229.02,-983.54 10.71,-49.44 19.96,-76.54 63.3,-104.44zm3774.82 1055.13c34.33,-27.3 71.41,-46.93 109.36,-68.61 63.46,-36.93 127.77,-72.37 192.87,-106.31 155.24,-80.28 278.15,-148.87 397.46,-277.71 6.44,-6.96 19.28,-12.61 28.63,-14.66 10.86,1.87 27.41,5.32 32.03,15.37 44.11,96.11 12.65,330.37 -0.69,421.98 -16.58,113.71 -115.91,363.53 -180.62,441.33 -41.03,29.53 -42.61,46.57 -24.76,-15.39 96.66,-173.29 135.27,-337.16 148.39,-534.57 1.77,-26.59 12.41,-100.57 1.13,-122.44 -26.36,3.43 -189.05,254.43 -227.09,294.52 -100.81,106.26 -228.83,237.95 -349.77,318.26l-9.06 0.23c-15.15,-22.56 -11.89,-103.84 -21.31,-134.52 -24.2,-78.78 -52.17,-148.51 -96.57,-217.47zm-5319.34 -2038.13c384.6,-466.32 1104.33,-609.95 1677.47,-515.68 620.53,102.06 1184.83,418.31 1631.71,855.67 93.04,91.06 364.01,388.13 410.4,502.35 -85.32,-45.46 -166.31,-91.82 -263.48,-106.73 -125.79,-19.28 -248.23,4.04 -359.06,66.68 -62.06,25.98 -76.76,59.4 -130.12,87.52 -29.01,-33.06 -50.25,-72.24 -76.49,-107.77 -24.59,-33.32 -51.47,-62.64 -77.57,-94.97 17.56,-37.99 46.24,-67.97 73.6,-99.44 103.85,-128.46 207.82,-179.07 364.01,-206.93 -137.86,-88.12 -329.97,-61.08 -457.78,33.65 -37.6,33.75 -78.32,67.6 -114.04,102.89 -25.84,-22.38 -162.83,-162.39 -178.34,-185.29 0.64,-18.13 2.08,-14.66 12.64,-32.54 42.6,-79.64 122.13,-179.61 197.53,-228.68 32.27,-21 73.07,-42.35 102.82,-63.8 -98.44,-22.5 -201.26,-16.1 -287.12,39.7 -50.67,32.93 -134.12,102.67 -175.4,147.8 -50.54,-30.29 -104.05,-76.24 -153.87,-111.65 -40.06,-28.48 -99.24,-58.98 -134.65,-86.07 29.97,-115.83 104.88,-191.32 183.75,-276.93 -144.28,0.89 -241.98,86.56 -322.78,198.46 -89.79,-46.86 -134.42,-68.77 -229.92,-103.98 14.25,-64.26 33.79,-146.49 58.44,-206.8 -100.24,37.35 -134.34,82.96 -194.64,171.21 -440.25,-147.87 -882.26,-126.34 -1305.06,76.94 -82.24,39.54 -177.07,111.02 -252.03,144.37zm3239.07 962.15c167.44,-105.36 301.93,-128.45 500.22,-91.81 135.36,140.05 202.1,335.14 300.19,499.84 -57.02,-31.18 -110.2,-67.8 -166.51,-100.41 -145.61,-84.29 -318.37,-84.5 -475.85,-32.9 -74.14,23.25 -123.2,52.87 -192.12,88.72 -41.58,-78.01 -84.26,-153.38 -125.69,-232.49 59.48,-59.35 89.32,-85.83 159.77,-130.95zm235.28 479.71c171.6,-63.39 304.43,-102.91 488.76,-43.15 130.58,42.33 99.23,33.69 151.78,161.93 30.9,75.42 63.87,153.82 91.11,232.91 7.12,20.3 13.24,40.93 18.35,61.82 -33.64,-31.2 -65.55,-49.24 -101.75,-74.69 -160.35,-112.71 -322.84,-120.02 -511.76,-98.61 -14.78,4.48 -28.72,4.69 -46.13,9.64 -69.67,19.84 -128.51,45.03 -193.53,75.86 -36.07,-70.47 -54.4,-141.84 -91.12,-213.04 37.04,-36.26 143.85,-92.93 194.3,-112.67zm1157.54 -73.82c112.24,-15.42 259.41,1.86 349.99,69.3 81.94,61 146.25,384.86 145.69,475.11 -132.86,-139.45 -243.8,-212.32 -439.43,-242.43 -62.44,-0.38 -105.65,1.65 -166.57,8.03 -17.21,-83.23 -16.68,-176.72 -33.95,-268.24 44.38,-21.63 95.98,-30.98 144.26,-41.76zm-54.64 -482.12c253.2,-12.87 275.34,87.32 353.99,292.3 26.48,69.02 49.52,116.66 64.75,192.68 -46.42,-40.06 -81.28,-71.98 -132.35,-106.65l-5.94 -4.05c-135.51,-90.58 -255.16,-77.2 -403.95,-48.31 -26.86,-98.46 -45.73,-163.18 -82.33,-258.21 61.65,-35.17 135.07,-60.39 205.83,-67.76zm-139.92 -377.43c25.75,-1.62 103.02,1.48 120.41,13.98 69.15,49.67 202.39,276.68 226.45,350.38 -62,-31.11 -107.82,-69.81 -176.97,-98 -104.49,-30.27 -204.02,-16.22 -300.52,30.06 -37.32,-87.66 -45.74,-121.81 -100.54,-202.72 74.84,-67.48 133.1,-84.35 231.18,-93.7zm-1526.37 -993.33c76.79,-8.18 218.59,9.95 291.24,26.88 450.82,105.05 845.68,354.58 1151.07,701.03 71.75,81.41 124.86,133.51 183.15,228.26 -153.12,-30.68 -212.88,-108.59 -375.67,-7.56l-5.79 3.63c-11.04,-2.51 -9.16,-4.65 -17.9,-16.85 -20.09,-34.43 -46.68,-69.29 -68.85,-103.61 62.67,-90.74 98.18,-64.71 159.38,-108.32l0.36 -7.18c-60.31,-32.69 -155.83,9.63 -211,35.19 -42.15,-44.76 -77.76,-98.45 -122.48,-145.3 51.38,-73.83 120.26,-72 137.43,-103.71 -6.29,-8.96 -9.41,-10.89 -23.06,-12.92 -92.83,-13.81 -109.09,-6.98 -182.05,40.27 -36.75,-35.92 -111.98,-89.54 -135.27,-123.88 -1.41,-32.87 33.73,-44.01 53.09,-78.14l-3.03 -6.82c-36.43,-11.06 -87.34,9.14 -121.46,22.79 -140.7,-117.99 -325.8,-217.03 -498.38,-282.89 -54.61,-20.84 -159.66,-35.44 -210.78,-60.88zm2971.38 4819.56c-182.8,-324.45 -358.95,-652.59 -528.33,-984.24 -43.77,-86.15 -151.54,-287.34 -179.28,-368.92 11.4,4.32 29.37,11.34 37.95,19.78 81.35,80.05 138.83,179.28 223.82,257.42 13,-65.18 19.42,-195.8 6.83,-260.87 -28.89,-149.43 -112.76,-324.3 -209.4,-441.53 -44.49,13.22 -102.35,52.81 -138.84,53.96 -6.28,-12.26 19.06,-53.81 25.71,-67.79 66.71,-140.83 101.25,-257.38 31.58,-404.75 -90.11,-190.64 -335.28,-207.71 -520.51,-199.91 32.7,56.1 89.43,102.01 125.44,158.12 47.91,72.15 72.84,159.2 89.11,243.49 7.1,36.77 31.91,167.14 -6.15,190.18 -7.97,-5.23 -55.81,-132.34 -72.42,-159.13 -82.35,-132.86 -277.97,-346.5 -417.12,-411.57 37.79,91.56 36.83,116.06 56.76,213.63 -124.15,-142.22 -192.25,-200.22 -384.37,-249.39 -161.56,-41.33 -396.29,-25.22 -540.95,61.52 76.02,8.79 145.87,10.02 221.69,31.76 182.31,52.28 388.8,208.48 480.6,374.76 -36.24,-16.5 -74.92,-41.85 -110.88,-60.64 -154.58,-80.78 -389.06,-77.07 -552.71,-25.31 -242.49,76.68 -442.28,236.16 -590.21,441.46 -30.26,41.98 -60.49,105.06 -86.42,150.58 -30.45,53.45 -49.38,115.89 -71.75,171.58 -84.32,201.96 -97.59,400.82 -94.37,615.29 2.97,197.95 35.44,322.75 94.39,507.81 51.68,162.29 100.86,239.1 194.11,377.37 253.72,376.29 709.82,618.57 1166.87,577.04 71.31,-6.8 335.42,-78.07 366.33,-138.11l-5.45 -13.03c-43.14,-16.78 -286.86,-335.12 -355.92,-378.98 -24.15,-15.35 -31.69,-12.9 -59.91,-11.04 -164.79,4.85 -273.72,-5.87 -418.72,-92.31 -211.55,-126.12 -358.72,-345.31 -412.99,-583.65 -55.68,-244.56 -36.93,-566.71 93.16,-783.36 75.76,-126.17 230.11,-265.52 373.81,-295.82 194.13,-40.92 390.96,-8.07 557.15,99.9 177.56,115.34 306.32,284.21 375.16,483.73 18.77,54.39 53.32,165.5 83.14,209.2 35.94,52.68 116.48,112.54 159.65,163.53 169.54,200.25 347.5,438.78 410,696.39 -138.64,-168.54 -422.25,-372.2 -631.86,-432.13 -74.52,194.79 -138.82,305.36 -310.16,433.66 10.79,5.1 13.84,6.16 25.75,8.35 54.01,11.06 105.66,49.45 152.81,77.21 177.69,104.59 345.64,225.17 489.69,373.4 53.92,55.48 172.63,174.88 186.53,252.21l6.19 6.42c35.71,36.51 71.49,58.09 109.23,92.94 152.36,140.69 595.14,367.26 604.51,-15.16 4.19,-170.97 -206.64,-130.58 -300.66,-233.61 -71.04,-77.84 -78.46,-144.68 -89.78,-247.64 -2.91,-25.68 -18.74,-104.97 -0.5,-124.22 30.82,6.05 76.93,103.73 110.66,127.33 66,46.15 141.35,69.89 208.5,113.25 66.08,42.67 106.21,107.13 147.02,172.15 39.26,-22.79 64.88,-42.13 84.15,-83.81 22.71,-49.13 59.45,-143.1 41.7,-196.32 -52.61,-157.71 -168.73,-346.29 -250.36,-492.18zm-2102.04 -1115.7c206.36,76.58 421.62,97.46 615.2,216.17 -20.88,15.16 -44.45,28.26 -66.77,41.43 -60.43,33.75 -105.82,57.83 -177.96,54.11 -179.02,-9.2 -289.53,-176.26 -370.47,-311.71zm-967.44 -2531.94c17.56,-37.99 46.24,-67.97 73.6,-99.44 3.54,10.43 205.75,210.03 210.58,214.66 -62.06,25.98 -76.76,59.4 -130.12,87.52 -29.01,-33.06 -50.25,-72.24 -76.49,-107.77 -24.59,-33.32 -51.47,-62.64 -77.57,-94.97zm266.45 406.02c59.48,-59.35 89.32,-85.83 159.77,-130.95 -6.09,25.64 -6.21,28.84 7.31,50.53 35.33,56.7 126.79,165.04 150.74,224.19 -74.14,23.25 -123.2,52.87 -192.12,88.72 -41.58,-78.01 -84.26,-153.38 -125.69,-232.49zm200.75 461.43c37.04,-36.26 143.85,-92.93 194.3,-112.67 22.08,28.04 33.76,47.74 50.73,72.65 22.21,32.6 64.38,154.55 85.75,167.56 -14.78,4.48 -28.72,4.69 -46.13,9.64 -69.67,19.84 -128.51,45.03 -193.53,75.86 -36.07,-70.47 -54.4,-141.84 -91.12,-213.04zm1207.58 -144.72c44.38,-21.63 95.98,-30.98 144.26,-41.76 18.34,101.59 39.18,199.65 56.26,301.97 -62.44,-0.38 -105.65,1.65 -166.57,8.03 -17.21,-83.23 -16.68,-176.72 -33.95,-268.24zm-409.11 3195.45c30.19,-7.11 64.97,-9.7 96.78,-18.24 61.34,-16.48 126.17,-51.43 181.58,-82.62 10.79,5.1 13.84,6.16 25.75,8.35 54.01,11.06 105.66,49.45 152.81,77.21 177.69,104.59 345.64,225.17 489.69,373.4 53.92,55.48 172.63,174.88 186.53,252.21l-5.38 -4.36c-49.16,-40.25 -134.43,-146.49 -184.05,-149.58 11.08,58.89 209.14,340.32 256.76,393.43 37.19,41.38 79.08,78.27 124.83,109.92 37.73,25.8 68.97,38.73 101.36,59.36 142.6,52.61 158.52,42.35 305.71,34.85 -52.41,99.95 -76.85,136.16 -192.2,176.39 -58.99,20.58 -127.51,11.71 -185.65,-10.36 -107.68,-26.29 -247.62,-166.5 -307.92,-256.91 -56.87,-85.29 -108.25,-194.48 -181.17,-267.26 -118.3,-118.09 -259.9,-212.65 -389.79,-315.04 -16.76,11.31 -18.96,14.48 -38.2,15.59 -7.96,-3.39 -12.98,-5.36 -21.6,-6.33 -43.14,-16.78 -286.86,-335.12 -355.92,-378.98 -24.15,-15.35 -31.69,-12.9 -59.91,-11.04zm379.02 1614.51c-45.98,-160.55 -13.48,-408.65 70.06,-554.67 33.91,-59.26 114.62,-179.03 192.27,-125.22 17.08,11.83 34.98,23.71 52.13,35.81 -157.68,196.98 -150.53,442.26 -77.12,672.05 -33.83,-29.44 -49.52,-155.4 -52.6,-199.62 -25.34,-361.78 -156.14,52.59 -184.73,171.65zm-2301.04 -4004.99l38.13 0c117.23,116.83 265.85,216.94 423.43,280.38l0 91.94 -106.2 -92.55c-40.34,-35.15 -84.78,-60.1 -129.53,-88.52 -84.23,-53.49 -159.19,-118.32 -225.83,-191.26z"/>
  <path id="golge" fill="#EBECEC" fill-rule="nonzero" d="M2983.17 1400.11c17.56,-37.99 46.24,-67.97 73.6,-99.44 3.54,10.43 205.75,210.03 210.58,214.66 -62.06,25.98 -76.76,59.4 -130.12,87.52 -29.01,-33.06 -50.25,-72.24 -76.49,-107.77 -24.59,-33.32 -51.47,-62.64 -77.57,-94.97zm266.45 406.02c59.48,-59.35 89.32,-85.83 159.77,-130.95 -6.09,25.64 -6.21,28.84 7.31,50.53 35.33,56.7 126.79,165.04 150.74,224.19 -74.14,23.25 -123.2,52.87 -192.12,88.72 -41.58,-78.01 -84.26,-153.38 -125.69,-232.49zm200.75 461.43c37.04,-36.26 143.85,-92.93 194.3,-112.67 22.08,28.04 33.76,47.74 50.73,72.65 22.21,32.6 64.38,154.55 85.75,167.56 -14.78,4.48 -28.72,4.69 -46.13,9.64 -69.67,19.84 -128.51,45.03 -193.53,75.86 -36.07,-70.47 -54.4,-141.84 -91.12,-213.04zm1207.58 -144.72c44.38,-21.63 95.98,-30.98 144.26,-41.76 18.34,101.59 39.18,199.65 56.26,301.97 -62.44,-0.38 -105.65,1.65 -166.57,8.03 -17.21,-83.23 -16.68,-176.72 -33.95,-268.24zm-409.11 3195.45c30.19,-7.11 64.97,-9.7 96.78,-18.24 61.34,-16.48 126.17,-51.43 181.58,-82.62 10.79,5.1 13.84,6.16 25.75,8.35 54.01,11.06 105.66,49.45 152.81,77.21 177.69,104.59 345.64,225.17 489.69,373.4 53.92,55.48 172.63,174.88 186.53,252.21l-5.38 -4.36c-49.16,-40.25 -134.43,-146.49 -184.05,-149.58 11.08,58.89 209.14,340.32 256.76,393.43 37.19,41.38 79.08,78.27 124.83,109.92 37.73,25.8 68.97,38.73 101.36,59.36 142.6,52.61 158.52,42.35 305.71,34.85 -52.41,99.95 -76.85,136.16 -192.2,176.39 -58.99,20.58 -127.51,11.71 -185.65,-10.36 -107.68,-26.29 -247.62,-166.5 -307.92,-256.91 -56.87,-85.29 -108.25,-194.48 -181.17,-267.26 -118.3,-118.09 -259.9,-212.65 -389.79,-315.04 -16.76,11.31 -18.96,14.48 -38.2,15.59 -7.96,-3.39 -12.98,-5.36 -21.6,-6.33 -43.14,-16.78 -286.86,-335.12 -355.92,-378.98 -24.15,-15.35 -31.69,-12.9 -59.91,-11.04zm379.02 1614.51c-45.98,-160.55 -13.48,-408.65 70.06,-554.67 33.91,-59.26 114.62,-179.03 192.27,-125.22 17.08,11.83 34.98,23.71 52.13,35.81 -157.68,196.98 -150.53,442.26 -77.12,672.05 -33.83,-29.44 -49.52,-155.4 -52.6,-199.62 -25.34,-361.78 -156.14,52.59 -184.73,171.65z"/>
 </g>
</svg>
